<?xml version="1.0" encoding="UTF-8"?>
<svg width="500" height="340" version="1.1" xmlns="http://www.w3.org/2000/svg">
 <path d="m417.19 86.43c4.6509-0.0756 6.3906-0.0786 7.7895-0.33228 1.3989-0.25367 2.4577-0.75785 3.3396-1.5391 0.882-0.78122 1.5878-1.8399 2.3951-2.2432s1.7148-0.15121 2.168-0.30212 0.4532-0.70547 0.63-1.0085c0.1769-0.30305 0.5298-0.35347 0.6556-0.52929s0.025-0.47826 0.4533-1.1846c0.4283-0.70637 1.3862-1.8155 2.3447-2.2944 0.9585-0.47891 1.9164-0.32766 2.8992-0.42868s1.9911-0.45393 2.5705-0.85687c0.5794-0.40293 0.7306-0.85665 0.8063-1.0838 0.076-0.22717 0.076-9.9069 0.2018-10.033 0.1261-0.12604 0.3782-0.37811 1.2103-0.78153 0.8321-0.40343 2.2437-0.95798 3.05-1.9154 0.8064-0.95739 1.0081-2.3186 1.2098-4.436s0.4033-4.991 0.5293-6.554 0.1764-1.8152 0.7565-2.1937c0.58-0.37856 1.6892-0.88274 2.3191-1.2355s0.7812-0.55435 1.0836-1.0584c0.3025-0.50407 0.7562-1.3107 1.0335-1.9659s0.3782-1.1593 0.6554-2.3189c0.2773-1.1596 0.731-2.9745 0.7817-4.6632 0.051-1.6887-0.3023-3.2516-0.7054-4.3859s-0.8568-1.8402-2.8229-4.1089-5.4447-6.1002-7.3858-8.2682c-1.9411-2.1679-2.3444-2.672-4.4364-3.5295-2.0921-0.85743-5.8732-2.0674-8.2933-2.6977-2.42-0.63037-3.4787-0.68078-5.0668-0.65562-1.5882 0.0252-3.7056 0.12599-5.1173 0.20161-1.4117 0.0756-2.1175 0.12602-4.4874 1.462-2.3698 1.336-6.403 3.9575-8.7978 5.5204-2.3947 1.5629-3.151 2.0671-4.3359 3.5545-1.185 1.4874-2.7983 3.9578-3.731 5.4199s-1.1848 1.9158-1.5376 3.5294c-0.3529 1.6136-0.8066 4.3863-1.0839 6.0248s-0.3782 2.1426-0.2015 3.2394 0.6304 2.7857-2.0039 5.2932c-2.6342 2.5075-8.3563 5.8349-9.73 10.676-1.3736 4.8406 1.6009 11.193 4.1722 16.121 2.5713 4.9282 4.7391 8.4319 9.6042 10.109 4.8651 1.6772 12.427 1.529 17.078 1.4534z" fill="#fdf2eb"/>
 <path d="m291.69 151.96c1.5792-0.89632 4.6504-2.266 11.147-5.0729 11.8-5.0979 34.9-14.935 46.914-20.033 12.014-5.0978 12.94-5.4545 14.606-6.7734 1.5302-1.212 3.7675-3.2571 6.6172-5.3652 0.29 1.0442 0.611 2.2299 0.9863 3.6543 1.5686 5.9535 3.9915 15.651 5.3105 20.963 1.319 5.3117 1.5345 6.2386 1.9981 7.3438 0.4637 1.1051 1.1769 2.3884 2.0684 3.2793s1.9604 1.39 3.4218 1.4609c1.4615 0.0709 3.3146-0.28554 5.168-1.1055 1.8535-0.81994 3.7065-2.104 5.168-3.3516 1.4614-1.2476 2.5315-2.4597 4.207-5.2402 1.6754-2.7805 3.9578-7.1295 5.5977-10.48s2.6365-5.7033 3.6347-7.9492 1.9969-4.3849 2.6387-5.6328c0.6417-1.2479 0.9265-1.6054 0.7129-2.6387s-0.9251-2.7443-0.5332-4.2422c0.012-0.0468 0.025-0.0923 0.039-0.13868l-10.392-3.9102c0.098-0.54756 0.1929-1.1139 0.2636-1.7617 0.214-1.9605 0.2145-4.5985 0.6778-6.6309 0.4634-2.0324 1.39-3.458 1.9961-4.6699 0.606-1.2119 0.8917-2.2105 0.9277-3.6719 0.035-1.4614-0.1796-3.3853-0.037-5.4531 0.1424-2.0678 0.6428-4.2792 0.3223-6.7031s-1.4628-5.0605-3.3165-8.5898c-0.3571-0.68004-0.7609-1.4184-1.166-2.1582l0.01-4e-3c0.9096-1.9056 1.8184-3.8128 2.2734-5.6211 0.4549-1.8083 0.456-3.5188-0.043-5.8359-0.4989-2.3171-1.4977-5.2407-3.1016-7.7363-1.604-2.4956-3.8141-4.5624-6.9512-5.8106-2.3528-0.93609-5.2268-1.4106-8.457-1.3789v1.1e-4c-1.0767 0.0105-2.194 0.0764-3.3438 0.20117-4.5989 0.49892-9.7321 1.9263-17.219 5.7051-7.4865 3.7788-17.324 9.9091-23.67 13.51-6.3455 3.6006-9.1973 4.6698-20.641 9.3398s-31.478 12.942-41.781 17.256c-7.3064 3.059-9.7186 4.1276-11.292 4.6049z" fill="#b7b7de"/>
 <path d="m182.59 321.37c0.01-0.0257 0.011-0.0519 0.016-0.0784" fill="none"/>
 <path d="m166.49 252.62c-0.01 3e-3 -0.012 5e-3 -0.018 8e-3" fill="none"/>
 <path d="m46.04 229.9c0.11489 0.19463 0.22984 0.42583 0.34794 0.69526 0.891 2.0327 1.9605 6.2391 2.6738 8.3418s1.071 2.1031 1.4629 1.9961c0.39185-0.10705 0.81836-0.32072 19.855-7.3438 19.037-7.023 56.683-20.855 87.85-33.186s55.854-23.159 80.541-33.988l0.027-0.0176c5.4143 11.486 11.763 24.909 15.781 33.398 5.383 11.372 5.6678 12.084 5.7031 12.689 0.035 0.60568-0.1786 1.105-13.404 6.666-13.226 5.561-39.464 16.185-52.654 21.711s-13.332 5.9537-13.225 6.8809c0.084 0.72751 0.321 1.7626 0.3505 2.5189l12.299 30.95c0.2165 0.22843 0.3957 0.74767 0.6474 1.4668 0.4991 1.426 1.2828 3.6377 1.8535 4.7422s0.9288 1.1041 1.2852 1.0684 0.7116-0.10684 16.896-7.0586 48.198-20.783 64.525-27.984 16.969-7.7722 18.93-9.5547 5.239-4.7775 7.0214-6.916c1.7823-2.1386 2.0681-3.4217-1.1757-15.721-3.2439-12.299-10.017-35.613-13.404-47.662-3.3868-12.05-3.3862-12.833-2.8516-14.438 0.5347-1.6045 1.6042-4.0293 2.3887-5.4199 0.3526-0.62498 0.6475-1.0412 1.9366-1.7728l-25.242-60.642c-0.6452 0.19573-1.1493 0.29201-1.7921 0.38534-2.2099 0.32091-6.0601 0.6055-8.4844 0.89063-2.4242 0.28513-3.4222 0.57014-6.6308 1.9961-3.2085 1.4259-8.6269 3.9939-11.728 5.5625s-3.8852 2.1387-6.8086 5.0977c-2.9233 2.959-7.986 8.3053-10.838 11.229s-3.4925 3.4227-6.3086 4.7773-7.8071 3.5657-11.301 5.1699-5.4903 2.6013-20.32 8.5547-42.492 16.862-57.715 22.887c-15.222 6.0248-18.004 7.166-27.736 10.695-9.7324 3.5293-26.416 9.4462-38.109 13.475s-18.394 6.1685-21.816 7.3808c-3.4227 1.2124-3.566 1.4962-3.543 2.1094s0.2115 1.5555 0.31836 2.0898c0.10687 0.5343 0.13156 0.66338-0.0293 0.73438-0.0252 0.0111-0.0548 0.0208-0.0973 0.0296z" fill="#f6c7c7"/>
 <g fill="none">
  <path d="m19.32 265.4c2.7e-4 -4.5e-4 5.4e-4 -8.9e-4 8.2e-4 -1e-3"/>
  <path d="m24.9 194.78c-6e-3 2.7e-4 -0.0116 5.3e-4 -0.0174 8e-4"/>
  <path d="m400.99 106.72c-0.1999 1.1187-0.4178 2.1249-0.4898 3.4229-0.1068 1.9253 0.1071 4.492 0.071 6.0959-0.036 1.6039-0.321 2.2456-0.927 3.9212-0.6061 1.6756-1.5329 4.3849-2.4596 7.0936"/>
 </g>
 <path d="m404.89 84.54c-0.1425 2.0679 0.071 3.9929 0.036 5.4543-0.036 1.4614-0.321 2.4596-0.927 3.6714-0.6061 1.2119-1.5329 2.6378-1.9963 4.6702-0.4633 2.0324-0.4633 4.6704-0.6773 6.6309-0.07 0.63876-0.1621 1.2056-0.2588 1.7462l10.388 3.9227c0.4455-1.4384 1.8725-2.7062 2.5973-4.7425 0.7486-2.1028 0.7486-5.026 1.7468-7.7358 0.9981-2.7098 2.9944-5.2052 4.2053-6.7597 1.2108-1.5545 1.6362-2.1681 1.8238-2.8022 0.1876-0.63408 0.1372-1.2895-1.2992-2.8021s-4.2596-3.8821-5.8728-5.1301c-1.6133-1.248-2.0166-1.3741-3.3724-1.3095s-3.6637 0.32032-5.9726 0.58075c-0.044 1.6252-0.3205 3.1504-0.4207 4.6051z" fill="#fdf2eb"/>
 <path d="m394.89 56.88c2.5674 4.4217 5.1342 8.8422 6.9878 12.371 1.8537 3.5293 2.9945 6.1673 3.315 8.5912 0.095 0.71865 0.118 1.4185 0.1 2.1014" fill="none"/>
 <path d="m411.39 110.64c2e-4 -5.9e-4 4e-4 -1e-3 6e-4 -2e-3" fill="none"/>
 <path d="m452.49 136.14c2.4887-1.1612 4.205-1.9293 5.518-2.4615 2.3319-0.94527 3.3918-1.1478 6.127-1.0469 2.7353 0.10096 7.1463 0.50436 9.8183 0.69336s3.6039 0.16381 4.4102-0.0254c0.8064-0.18916 1.4869-0.54281 2.6211-1.3242 1.1343-0.7814 2.7225-1.9898 3.7559-2.8594 1.0334-0.86961 1.5134-1.3991 2.5468-4.1465 1.0335-2.7474 2.6216-7.7137 3.3028-10.348 0.6811-2.634 0.4533-2.936-0.3282-2.9492-0.7814-0.0133-2.1175 0.26371-2.8613 0.22657-0.7437-0.0372-0.8949-0.39057-1.084-1.0586-0.1892-0.66803-0.4166-1.6513-0.8574-2.1309-0.4408-0.47956-1.0951-0.45307-2.2168-0.5664s-2.7095-0.36632-3.6426-0.4043v1e-5c-0.9331-0.038-1.2121 0.13917-2.334 1.0215-1.1218 0.88232-3.0869 2.4707-5.1914 3.416s-4.3486 1.2461-5.6347 1.6875-1.6138 1.0222-2.6094 2.3203c-0.9957 1.2981-2.6585 3.3145-3.7168 4.373s-1.5125 1.1593-6.3398 2.1172c-1.6863 0.33463-3.9063 0.77378-6.3689 1.2552" fill="#fdf2eb"/>
 <path d="m447.39 123.93c-4.5868 0.89668-10.015 1.9399-14.403 2.7272-6.7431 1.21-11.029 1.815-15.1 2.0293s-7.9274 0.0378-11.785-0.13868l-16.863 22.082c0.2524 0.88346 0.5046 1.7662 0.7696 2.3711s0.5416 0.93273 2.2558 1.2852c1.7143 0.35242 4.8652 0.72988 6.7305 0.90625s2.4456 0.15159 5.168-0.22657 7.5873-1.1094 10.184-1.5254c2.5964-0.41596 2.9243-0.51629 8.2305-3.0371s15.59-7.4606 22.535-10.775c3.0346-1.4485 5.4313-2.5865 7.3628-3.4877z" fill="#b7b7de"/>
 <g fill="none">
  <path d="m449.89 49.03c-0.2388 0.30275-0.2904 0.74836-0.3811 1.8748-0.126 1.563-0.3277 4.4366-0.5294 6.554s-0.4034 3.4786-1.2097 4.436c-0.8064 0.95738-2.218 1.5119-3.0501 1.9154-0.8321 0.40342-1.0842 0.65549-1.2102 0.78153-0.1261 0.12604-0.1261 9.8058-0.2018 10.033-0.076 0.22717-0.227 0.68089-0.8063 1.0838-0.5794 0.40294-1.5877 0.75585-2.5705 0.85687-0.9829 0.10102-1.9408-0.0502-2.8993 0.42868-0.9585 0.4789-1.9164 1.588-2.3447 2.2944-0.4283 0.70638-0.3274 1.0089-0.4532 1.1847-0.1259 0.17579-0.4788 0.22621-0.6556 0.52926-0.1769 0.30306-0.1769 0.85762-0.6301 1.0085-0.4531 0.15091-1.3606-0.10116-2.1679 0.30212-0.8074 0.40328-1.5132 1.462-2.3951 2.2432-0.882 0.78122-1.9408 1.2854-3.1759 1.5643-1.235 0.27893-2.647 0.33249-4.06 0.38609"/>
  <path d="m398.99 46.72c-0.3698-1.3869-0.7399-2.7748-0.9154-3.7733"/>
  <path d="m418.89 45.54c-0.033 0.21483-0.054 0.46077-0.071 0.75577-0.076 1.3868-0.025 3.8571 0.656 5.5712 0.6811 1.714 1.9919 2.6719 3.3016 3.629"/>
 </g>
 <path d="m449.89 49.04c-0.8047-1.6292-1.6099-3.2596-2.214-4.3017s-1.0074-1.4958-1.5875-1.4965-1.3363 0.45308-3.2774 1.8648c-1.9411 1.4117-5.0668 3.7812-6.9319 5.0415s-2.4701 1.4116-2.924 1.0846-0.7563-1.1336-1.2099-1.89c-0.4535-0.75631-1.0584-1.4621-1.2607-1.9918-0.2022-0.52971-5e-4 -0.88264 0.025-1.8654 0.025-0.98273-0.1259-2.596-0.3272-3.5791s-0.4533-1.336-1.3102-1.8404-2.3189-1.1598-3.2268-1.4123c-0.9078-0.25245-1.2607-0.10121-2.2189 0.90727s-2.521 2.8738-3.4033 3.9578c-0.6946 0.85341-0.9674 1.2224-1.0889 2.0176m-20.774-2.5901c1.3145 1.0572 2.628 2.1135 3.9405 3.1688 1.7655 0.20267 3.5301 0.40432 5.2936 0.60499 1.9672 0.0514 3.9334 0.10183 5.8986 0.15124 1.8821-0.44667 3.763-0.89433 5.643-1.343m-20.776-2.5815c-0.016-0.0896-0.03-0.17599-0.042-0.259-0.1514-1.0085-0.051-1.5127 0.2267-3.1512 0.2773-1.6385 0.731-4.4113 1.0839-6.0248s0.6049-2.0673 1.5376-3.5294c0.9328-1.4621 2.546-3.9324 3.731-5.4199 1.1849-1.4874 1.9412-1.9916 4.336-3.5545s6.4279-4.1845 8.7978-5.5204c2.3698-1.336 3.0756-1.3864 4.4873-1.462s3.5292-0.17645 5.1173-0.20161c1.5881-0.0252 2.6468 0.0252 5.0669 0.65562 2.42 0.63036 6.2011 1.8403 8.2932 2.6977s2.4954 1.3616 4.4364 3.5295c1.9411 2.1679 5.4197 5.9994 7.3858 8.2682s2.4199 2.9745 2.823 4.1089 0.756 2.6972 0.7053 4.3859c-0.051 1.6887-0.5043 3.5036-0.7816 4.6632s-0.3781 1.6637-0.6554 2.3189-0.7311 1.4618-1.0335 1.9659c-0.3025 0.50407-0.4537 0.70569-1.0836 1.0584-0.63 0.35273-1.7391 0.85691-2.3192 1.2355-0.162 0.10574-0.2827 0.20163-0.3753 0.31897" fill="#f7f7b8"/>
 <path d="m413.09 73.19c-0.1008-1.8139-0.2016-3.6289-0.1262-4.9147 0.075-1.2858 0.3276-2.042 0.7813-3.3781 0.4538-1.336 1.1092-3.2518 1.7648-5.1682" fill="none"/>
 <path d="m291.69 151.96c-8.4387-20.204-16.878-40.409-25.317-60.616" fill="none"/>
 <g>
  <path d="m15.73 257.02c-0.68179-2.1452-0.61049-3.2859 1.0517-13.492 1.6622-10.206 4.9152-29.477 8.1348-48.747-1.8103 0.0989-3.5478 0.19417-5.4524 0.45164-1.9046 0.25746-2.1711 0.30369-2.3253 0.43443s-0.19117 0.3496-1.6734 10.67c-1.4822 10.321-3.9177 30.854-5.0095 41.637s-1.1767 11.793-0.94269 13.543 1.1753 4.3822 2.0636 5.5202c0.88835 1.138 1.5041 1.514 2.336 1.5688 0.83183 0.0548 2.1494-0.40748 3.1008-1.025 0.9514-0.61754 1.7192-1.5042 2.2857-2.1496-1.4533-3.1168-2.8875-6.2661-3.5693-8.4113z" fill="#e6e6e6"/>
  <path d="m183.59 316.4c1.105-5.6328 3.3142-16.327 4.455-22.066 1.1408-5.7394 1.2128-6.5249 1.9258-8.0938 0.7129-1.5689 2.067-3.9203 2.8516-4.7754 0.3889-0.42391 0.6377-0.48038 0.8506-0.25582l-12.299-30.95c0.01 0.20756 5e-4 0.39411-0.03 0.54753-0.1423 0.71239-0.7837 0.71122-1.8887 0.39062-1.1051-0.3206-2.673-0.96256-3.8496-1.248-1.1766-0.28548-1.9604-0.21393-4.3848 0.7129-1.2931 0.49435-3.0529 1.2323-4.7394 1.9499 3.3447 19.597 6.6797 39.197 8.4542 49.568s1.9884 11.511 3.0184 13.131c1.0299 1.6194 2.8752 3.7176 4.7024 5.8978 0.1855-0.88867 0.4566-2.3766 0.9336-4.8081z" fill="#debca6"/>
  <path d="m19.75 264.61c0.24862-0.48812 0.44722-0.88793 2.5522-5.0036 2.105-4.1157 6.2038-11.903 8.8545-15.928 2.6507-4.0249 3.2976-4.8228 5.099-6.7729s4.903-4.905 6.6702-5.8658 2.7999-1.0306 3.0868-1.0684c0.28692-0.0378-12.379-35.577-12.495-35.571-0.11542 6e-3 -0.82907 0.0293-2.6776 0.1187s-3.9162 0.17688-5.9102 0.2613c-3.2284 19.271-6.4814 38.542-8.1435 48.748-1.6622 10.206-1.7335 11.347-1.0517 13.492 0.68178 2.1452 2.116 5.2945 3.5697 8.4105 0.11106-0.18681 0.19686-0.33264 0.44547-0.82076z" fill="#debca6"/>
  <path d="m177.89 315.31c-1.03-1.6194-1.2439-2.7602-3.0184-13.131s-5.1095-29.971-8.4632-49.564c-1.496 0.63655-2.9237 1.2522-3.9508 1.683-2.2101 0.92691-2.5668 0.99783-0.8203 11.266 1.7466 10.268 5.5968 30.73 7.6289 41.246 2.0322 10.517 2.2462 11.087 3.3515 12.691s3.1009 4.2421 4.2774 5.5606 1.5345 1.318 2.3183 0.7832c0.7839-0.53478 1.9956-1.6044 2.6016-2.4238 0.3373-0.45604 0.4868-0.83461 0.7691-2.1742-1.8189-2.2195-3.6642-4.3176-4.6941-5.937z" fill="#e6e6e6"/>
 </g>
 <g fill="none" stroke="#000" stroke-linecap="round" stroke-linejoin="round">
  <g stroke-width="2">
   <path d="m238.79 166.42c-24.687 10.829-49.374 21.658-80.541 33.989s-68.812 26.162-87.849 33.185-19.465 7.2369-19.857 7.344c-0.39184 0.10705-0.74832 0.10705-1.4617-1.9957s-1.7828-6.3092-2.6738-8.3419c-0.89101-2.0327-1.604-1.8901-3.4581-0.28582-1.8542 1.6043-4.8486 4.67-6.8092 6.4881s-2.8874 2.3884-5.3475 6.5953c-2.46 4.2069-6.4527 12.05-8.5204 16.185s-2.2103 4.5633-2.6737 5.383-1.2477 2.0318-2.3167 2.8159c-1.0691 0.78408-2.4237 1.1406-3.4573 1.2121-1.0336 0.0716-1.7466-0.14231-2.5669-1.5679-0.82032-1.4255-1.7472-4.0635-2.104-5.8819-0.35679-1.8184-0.1429-2.8165 1.1405-13.582 1.2834-10.766 3.6375-31.311 4.941-41.664s1.5586-10.535 1.8082-10.713c0.24954-0.17825 0.4933-0.35279 3.1188-0.54025s7.5847-0.38576 10.276-0.49339c2.6909-0.10764 3.0378-0.12157 3.1986-0.19256 0.16086-0.071 0.13507-0.20029 0.0282-0.73459-0.10686-0.5343-0.29511-1.4751-0.31814-2.0883-0.023-0.61321 0.1196-0.89847 3.5423-2.1108 3.4227-1.2124 10.125-3.3513 21.818-7.3796s28.376-9.946 38.109-13.475 12.513-4.6701 27.736-10.695c15.222-6.0248 42.886-16.933 57.716-22.887s16.826-6.9516 20.32-8.5558 8.4845-3.8144 11.301-5.1691c2.8161-1.3546 3.4578-1.8537 6.3097-4.7769s7.914-8.2705 10.837-11.229c2.9234-2.959 3.7076-3.5293 6.8092-5.0979s8.5203-4.1354 11.729-5.5613c3.2086-1.426 4.2068-1.7111 6.631-1.9963 2.4243-0.28513 6.2744-0.57032 8.4843-0.89123 2.21-0.3209 2.7803-0.67736 13.083-4.991s30.337-12.584 41.781-17.254 14.295-5.7395 20.641-9.3402c6.3455-3.6006 16.184-9.7321 23.671-13.511 7.4866-3.7788 12.62-5.2048 17.219-5.7037 4.599-0.49892 8.6629-0.0711 11.8 1.177 3.1371 1.2482 5.3473 3.3158 6.9513 5.8114 1.6039 2.4956 2.602 5.4188 3.1009 7.7359s0.4989 4.0282 0.044 5.8365c-0.455 1.8083-1.3649 3.7142-2.2745 5.6198"/>
   <path d="m394.89 56.88c2.5674 4.4217 5.1342 8.8422 6.9878 12.371 1.8537 3.5293 2.9945 6.1673 3.315 8.5912s-0.1786 4.6341-0.321 6.702c-0.1425 2.0679 0.071 3.9929 0.036 5.4543-0.036 1.4614-0.321 2.4596-0.927 3.6714-0.6061 1.2119-1.5329 2.6378-1.9963 4.6702-0.4633 2.0324-0.4633 4.6704-0.6773 6.6309s-0.6418 3.2439-0.7486 5.1692 0.1071 4.492 0.071 6.0959c-0.036 1.6039-0.321 2.2456-0.927 3.9212-0.6061 1.6756-1.5329 4.3849-2.4596 7.0936"/>
   <path d="m226.99 123.18c0.3566 6.4179 0.7131 12.835 0.927 16.364 0.2139 3.5293 0.2852 4.171 5.5616 15.508s15.757 33.367 21.14 44.739 5.6682 12.085 5.7035 12.691c0.035 0.60568-0.1786 1.1048-13.404 6.6658-13.226 5.561-39.463 16.184-52.654 21.71-13.19 5.526-13.333 5.9538-13.226 6.881s0.4636 2.3531 0.3214 3.0655c-0.1423 0.71239-0.7839 0.71239-1.8889 0.39179-1.1051-0.3206-2.6736-0.96226-3.8502-1.2478-1.1766-0.28548-1.9609-0.21418-4.3853 0.71265-2.4243 0.92683-6.4882 2.7092-8.6983 3.6362-2.2101 0.92691-2.5666 0.99821-0.8201 11.266 1.7466 10.268 5.5966 30.73 7.6287 41.247 2.0322 10.517 2.2461 11.087 3.3514 12.691s3.1016 4.2422 4.2781 5.5606 1.533 1.3184 2.3168 0.78367c0.7839-0.53478 1.9959-1.6043 2.6019-2.4236 0.606-0.81939 0.606-1.3898 1.7111-7.0226s3.3153-16.327 4.4561-22.067c1.1408-5.7394 1.2121-6.5237 1.9251-8.0926 0.7129-1.5689 2.0675-3.9217 2.8521-4.7768s0.9984-0.21348 1.4975 1.2125c0.4991 1.426 1.2834 3.6362 1.8541 4.7407s0.9272 1.1045 1.2836 1.0688 0.7128-0.10701 16.898-7.0588 48.197-20.783 64.524-27.984 16.969-7.7714 18.929-9.5539 5.2404-4.777 7.0228-6.9155c1.7823-2.1386 2.0675-3.4219-1.1763-15.721-3.2439-12.299-10.017-35.613-13.404-47.663-3.3868-12.05-3.3868-12.834-2.8522-14.438 0.5347-1.6045 1.6041-4.0286 2.3886-5.4192s1.2836-1.7471 13.084-6.8451 34.9-14.937 46.914-20.035c12.014-5.0978 12.941-5.4543 14.606-6.7733 1.6653-1.319 4.0696-3.6005 6.4738-5.882"/>
   <path d="m366.39 102.65c0.8562 1.7837 1.7118 3.5661 2.496 5.5625s1.4971 4.2066 3.0656 10.16c1.5686 5.9535 3.9927 15.65 5.3117 20.962 1.319 5.3117 1.5329 6.2386 1.9965 7.3437 0.4637 1.1051 1.1767 2.3885 2.0682 3.2794s1.9609 1.39 3.4223 1.4609c1.4615 0.0709 3.3152-0.28555 5.1686-1.1055 1.8535-0.81994 3.7073-2.1033 5.1688-3.3509 1.4614-1.2476 2.5309-2.4597 4.2064-5.2402 1.6754-2.7805 3.9569-7.1296 5.5968-10.481s2.638-5.7038 3.6362-7.9497 1.9963-4.3848 2.6381-5.6327c0.6417-1.2479 0.9269-1.6044 0.7133-2.6377s-0.9266-2.7444-0.5347-4.2424c0.392-1.4979 1.8893-2.7813 2.6378-4.8841 0.7486-2.1028 0.7486-5.026 1.7468-7.7358 0.9981-2.7098 2.9944-5.2052 4.2053-6.7597 1.2108-1.5545 1.6362-2.1681 1.8238-2.8022 0.1876-0.63408 0.1372-1.2895-1.2992-2.8021s-4.2596-3.8821-5.8728-5.1301c-1.6133-1.248-2.0166-1.3741-3.3724-1.3095s-3.6637 0.32032-5.9725 0.57613"/>
   <path d="m389.29 150.63c0.2524 0.88346 0.5045 1.7657 0.7695 2.3707s0.5423 0.93265 2.2565 1.2851c1.7143 0.35242 4.8652 0.73053 6.7305 0.9069s2.4451 0.15117 5.1675-0.22699 7.5874-1.1092 10.184-1.5251 2.924-0.51679 8.2302-3.0376 15.591-7.4615 22.536-10.776c6.9447-3.3148 10.549-5.0037 12.881-5.949 2.3319-0.94527 3.3906-1.1469 6.1258-1.046 2.7353 0.10096 7.1465 0.50427 9.8185 0.69327s3.6047 0.1638 4.411-0.0254c0.8064-0.18916 1.487-0.54205 2.6212-1.3235 1.1343-0.7814 2.7223-1.9913 3.7557-2.8609 1.0334-0.86961 1.5124-1.3989 2.5458-4.1464 1.0335-2.7474 2.6215-7.7132 3.3027-10.347 0.6811-2.634 0.4542-2.9364-0.3273-2.9497-0.7814-0.0133-2.1174 0.26403-2.8612 0.22689-0.7437-0.0371-0.895-0.39004-1.0841-1.0581-0.1892-0.66803-0.4161-1.6511-0.8569-2.1307-0.4408-0.47956-1.0962-0.45436-2.2179-0.56769s-2.7097-0.3654-3.6428-0.40338c-0.9331-0.038-1.2104 0.13846-2.3323 1.0208-1.1218 0.88231-3.088 2.4704-5.1925 3.4157s-4.3479 1.2478-5.634 1.6892-1.6139 1.0211-2.6095 2.3192c-0.9957 1.2981-2.6594 3.3147-3.7177 4.3733s-1.5121 1.1594-6.3394 2.1173c-4.8273 0.95792-14.028 2.7728-20.771 3.9828s-11.028 1.815-15.099 2.0293-7.9277 0.0379-11.786-0.1386"/>
   <path d="m398.99 46.72c-0.403-1.5113-0.8063-3.0238-0.9578-4.0323-0.1514-1.0085-0.051-1.5127 0.2267-3.1512 0.2773-1.6385 0.731-4.4113 1.0839-6.0248s0.6049-2.0673 1.5376-3.5294c0.9328-1.4621 2.546-3.9324 3.731-5.4199 1.1849-1.4874 1.9412-1.9916 4.336-3.5545s6.4279-4.1845 8.7978-5.5204c2.3698-1.336 3.0756-1.3864 4.4873-1.462s3.5292-0.17645 5.1173-0.20161c1.5881-0.0252 2.6468 0.0252 5.0669 0.65562 2.42 0.63036 6.2011 1.8403 8.2932 2.6977s2.4954 1.3616 4.4364 3.5295c1.9411 2.1679 5.4197 5.9994 7.3858 8.2682s2.4199 2.9745 2.823 4.1089 0.756 2.6972 0.7053 4.3859c-0.051 1.6887-0.5043 3.5036-0.7816 4.6632s-0.3781 1.6637-0.6554 2.3189-0.7311 1.4618-1.0335 1.9659c-0.3025 0.50407-0.4537 0.70569-1.0836 1.0584-0.63 0.35273-1.7391 0.85691-2.3192 1.2355-0.58 0.37856-0.6305 0.63075-0.7564 2.1937-0.126 1.563-0.3277 4.4366-0.5294 6.554s-0.4034 3.4786-1.2097 4.436c-0.8064 0.95738-2.218 1.5119-3.0501 1.9154-0.8321 0.40342-1.0842 0.65549-1.2102 0.78153-0.1261 0.12604-0.1261 9.8058-0.2018 10.033-0.076 0.22717-0.227 0.68089-0.8063 1.0838-0.5794 0.40294-1.5877 0.75585-2.5705 0.85687-0.9829 0.10102-1.9408-0.0502-2.8993 0.42868-0.9585 0.4789-1.9164 1.588-2.3447 2.2944-0.4283 0.70638-0.3274 1.0089-0.4532 1.1847-0.1259 0.17579-0.4788 0.22621-0.6556 0.52926-0.1769 0.30306-0.1769 0.85762-0.6301 1.0085-0.4531 0.15091-1.3606-0.10116-2.1679 0.30212-0.8074 0.40328-1.5132 1.462-2.3951 2.2432-0.882 0.78122-1.9408 1.2854-3.1759 1.5643-1.235 0.27893-2.647 0.33249-4.06 0.38609"/>
   <path d="m398.09 42.95c1.3146 1.0571 2.6281 2.1134 4.1671 2.742 1.539 0.62859 3.3036 0.83026 5.1689 0.95624 1.8653 0.12599 3.8315 0.1764 5.755-0.0223 1.9235-0.19873 3.8044-0.64637 5.6847-1.0939"/>
   <path d="m449.89 49.04c-0.8047-1.6292-1.6099-3.2596-2.214-4.3017s-1.0074-1.4958-1.5875-1.4965-1.3363 0.45308-3.2774 1.8648c-1.9411 1.4117-5.0668 3.7812-6.9319 5.0415s-2.4701 1.4116-2.924 1.0846-0.7563-1.1336-1.2099-1.89c-0.4535-0.75631-1.0584-1.4621-1.2607-1.9918-0.2022-0.52971-5e-4 -0.88264 0.025-1.8654 0.025-0.98273-0.1259-2.596-0.3272-3.5791s-0.4533-1.336-1.3102-1.8404-2.3189-1.1598-3.2268-1.4123c-0.9078-0.25245-1.2607-0.10121-2.2189 0.90727s-2.521 2.8738-3.4033 3.9578-1.084 1.3865-1.1595 2.7733c-0.076 1.3868-0.025 3.8571 0.656 5.5712 0.6811 1.714 1.9919 2.6719 3.3016 3.629"/>
   <path d="m413.09 73.19c-0.1008-1.8139-0.2016-3.6289-0.1261-4.9147 0.075-1.2858 0.3275-2.042 0.7813-3.3781 0.4537-1.336 1.1091-3.2518 1.7647-5.1682"/>
  </g>
  <path d="m19.28 265.46c-1.4337-3.1481-2.868-6.2974-3.5498-8.4426-0.68179-2.1452-0.61049-3.2859 1.0517-13.492 1.6622-10.206 4.9152-29.477 8.1684-48.749"/>
  <path d="m45.92 229.7c-4.2551-11.758-8.5107-23.517-12.767-35.277"/>
  <path d="m193.89 281.63c-4.1858-10.5-8.3721-21.001-12.559-31.503"/>
  <path d="m182.69 321.13c-1.8444-2.0971-3.6897-4.1952-4.7196-5.8146-1.03-1.6194-1.2439-2.7602-3.0184-13.131s-5.1095-29.971-8.4447-49.572"/>
  <path d="m291.69 151.96c-8.4386-20.204-16.878-40.409-25.317-60.616"/>
  <path d="m400.99 106.71c3.4627 1.3132 6.9242 2.626 10.384 3.9383"/>
  <path d="m447.29 123.95c1.714 4.0711 3.4274 8.141 5.1403 12.21"/>
 </g>
</svg>
